<svg xmlns="http://www.w3.org/2000/svg" width="110.21" height="28.654" viewBox="0 0 110.21 28.654">
    <defs>
        <style>
            .cls-1{fill:#582183;fill-rule:evenodd}
        </style>
    </defs>
    <path id="astropay" d="M184.255 406.463h-4.28a.2.2 0 0 1-.211-.179c-.693-2-1.3-3.974-1.989-5.856 0-.119-.12-.209-.3-.209h-5.606a.205.205 0 0 0-.211.209c-.693 1.972-1.3 3.944-1.989 5.946 0 .09-.12.179-.211.179h-4.1a2.479 2.479 0 0 0 .211-.687c2.291-6.842 4.7-13.565 6.992-20.407 0-.12.091-.21.3-.21h3.8a.226.226 0 0 1 .212.21c2.38 7.021 4.791 13.983 7.2 21 .091-.09.18-.09.18 0zm-4.28-14.879l-1.326-3.855c.423-.209.814-.508 1.206-.687a19.8 19.8 0 0 1 5.7-2.091 33.805 33.805 0 0 1 6.207-.6 25.7 25.7 0 0 1 9.1 1.793c.211.09.422.179.693.3-.09 0-.09 0-.09.09-1 .3-1.9.6-2.893.9h-.211a20.622 20.622 0 0 0-6.992-.687 18.869 18.869 0 0 0-5.816 1.194 13.273 13.273 0 0 0-5.395 3.556c-.091 0-.091 0-.181.09zm35.984-1.076v4.063c-.3-.09-.6-.09-.9-.209a4.092 4.092 0 0 0-1.477 0 2.893 2.893 0 0 0-1.808 1.793 5.83 5.83 0 0 0-.3 1.883v8.246h-4.1c-.09-5.259.091-10.518-.211-15.776h3.918l.091 1.076a5.188 5.188 0 0 1 2.592-1.375 14.413 14.413 0 0 0 2.2.3zm-13.682-3.466v3.645h3.677v3.5h-3.677v7.141a4.448 4.448 0 0 0 .18 1.075c.12.389.512.806.9.687a6.355 6.355 0 0 0 2.019-.3c.091 0 .181-.09.3-.09a2.456 2.456 0 0 0 .091.806c.091.866.091 1.762.211 2.659 0 .119 0 .119-.12.119a6.812 6.812 0 0 1-3.707.479 4.029 4.029 0 0 1-3.074-1.793 5.5 5.5 0 0 1-.723-2.181 11.5 11.5 0 0 1-.091-1.763v-6.752h-2.2v-3.466h2.2v-2.48zm-8.017 8.037c-.3-.209-.6-.418-.9-.6a4.065 4.065 0 0 0-2.683-.6 1.825 1.825 0 0 0-.693.179 1.133 1.133 0 0 0-.513 1.405c.091.09.212.3.3.388a10.507 10.507 0 0 0 1.507.807 17.927 17.927 0 0 1 2.291 1.075 5.361 5.361 0 0 1 1.989 2.48 4.73 4.73 0 0 1-2.381 5.856 8.036 8.036 0 0 1-3.707.777 8.647 8.647 0 0 1-4.611-1.375c-.091 0-.091-.09-.091-.21.392-1.075.694-2.181 1.086-3.256.3.179.723.388 1.025.6a6.474 6.474 0 0 0 2.682.777 2.957 2.957 0 0 0 1.3-.18 1.225 1.225 0 0 0 .814-.9 1.259 1.259 0 0 0-.512-1.285 12.08 12.08 0 0 0-1.477-.806 8.278 8.278 0 0 1-2.5-1.285 4.349 4.349 0 0 1-.512-6.932 6.034 6.034 0 0 1 3.1-1.495 6.632 6.632 0 0 1 5.485 1.2l.12.09c-.422 1.106-.723 2.181-1.115 3.287zm65.729 11.384h-3.918l-.091-.9c-.091 0-.091.119-.211.119a6.881 6.881 0 0 1-4.1 1.076 5.344 5.344 0 0 1-2.893-.987 4.439 4.439 0 0 1-1.9-3.376 5.472 5.472 0 0 1 .783-3.466 5.857 5.857 0 0 1 2.5-2.091 13.235 13.235 0 0 1 3.224-.9c.573-.09 1.3-.09 1.9-.179h.09a2.086 2.086 0 0 0-1.808-2 6.2 6.2 0 0 0-4.189 1.016c-.211.09-.392.3-.6.388l-1.115-3.287a14.364 14.364 0 0 1 2.02-1.075 10.912 10.912 0 0 1 4.4-.6 6 6 0 0 1 3.285 1.2 5.681 5.681 0 0 1 1.809 2.569 9.05 9.05 0 0 1 .391 2.869v4.961a35.29 35.29 0 0 0 .3 4.273.651.651 0 0 1 .121.388zm-4.4-7.321a5.331 5.331 0 0 0-1.2.09 8.045 8.045 0 0 0-2.11.479 1.628 1.628 0 0 0-1.085 1.314 1.161 1.161 0 0 0 0 .9 1.219 1.219 0 0 0 1.175 1.284 2.98 2.98 0 0 0 2.2-.6 2.255 2.255 0 0 0 1.025-1.584v-1.883zm19.981-8.456c-.18.6-.482 1.315-.693 1.912a1871.37 1871.37 0 0 1-4.19 10.907 36.485 36.485 0 0 1-2.109 4.542 11.3 11.3 0 0 1-2.291 2.987 7.835 7.835 0 0 1-3.315 1.793c-.3.09-.6.09-.994.179l-1.115-3.555a3.881 3.881 0 0 1 .512-.21 6.811 6.811 0 0 0 3.887-3.077c.211-.3.3-.6.512-.9.091-.09.091-.179 0-.3-1.206-2.958-2.411-5.827-3.5-8.814-.694-1.793-1.417-3.556-2.2-5.469a.278.278 0 0 0-.09-.179h4.4a.313.313 0 0 1 .18.09c1.115 3.078 2.321 6.156 3.406 9.233a.276.276 0 0 0 .091.179.61.61 0 0 0 .12-.388c1-2.958 1.989-5.946 2.984-8.9 0-.12.12-.21.3-.21h4.1zm-59.791 7.948a9.823 9.823 0 0 1 1.085-4.451 7.255 7.255 0 0 1 5.395-3.676 7.708 7.708 0 0 1 8.529 4.751 9.317 9.317 0 0 1 .483 4.363 7.717 7.717 0 0 1-1.206 3.676 6.993 6.993 0 0 1-4.581 3.256 8.078 8.078 0 0 1-6.207-.866 6.694 6.694 0 0 1-2.893-3.764 7.482 7.482 0 0 1-.6-3.288zm4.189.21a3.432 3.432 0 0 0 .091.9 4.8 4.8 0 0 0 1.115 2.451 3.047 3.047 0 0 0 3.406.9 3.108 3.108 0 0 0 1.808-1.673 6.327 6.327 0 0 0 .091-5.469 3.861 3.861 0 0 0-1.417-1.673 3.221 3.221 0 0 0-4.28 1.2 5.693 5.693 0 0 0-.814 3.376zm17.3 7.619h-4.1v-21c.392-.12.694-.12 1.115-.21a38.869 38.869 0 0 1 5-.3 11.25 11.25 0 0 1 3.978.687 5.961 5.961 0 0 1 3.707 4.661 6.7 6.7 0 0 1-.694 4.572 6.48 6.48 0 0 1-2.893 2.779 10.675 10.675 0 0 1-3.315.9 13.408 13.408 0 0 1-2.682 0v7.918zm0-11.384h.6a7.06 7.06 0 0 0 2.5-.209 3.384 3.384 0 0 0 1.809-.987 3.579 3.579 0 0 0 .783-2.181 2.736 2.736 0 0 0-2.291-2.988 7.15 7.15 0 0 0-2.109-.209 3.944 3.944 0 0 0-1.175.119zm-64.4 1.584h3.8l-1.9-5.558z" class="cls-1" transform="translate(-165.36 -384.353)"/>
</svg>
