<svg xmlns="http://www.w3.org/2000/svg" width="85.273" height="52.571" viewBox="0 0 85.273 52.571">
    <defs>
        <style>
            .cls-1{fill:#582183;fill-rule:evenodd}
        </style>
    </defs>
    <path id="Bank_Transfer" d="M257.529 373.879a4.217 4.217 0 0 1 4.228 4.161v42.632a4.217 4.217 0 0 1-4.228 4.161H182.28a4.209 4.209 0 0 1-4.2-4.161V378.04a4.209 4.209 0 0 1 4.2-4.161h75.248m0-.808H182.28a4.941 4.941 0 0 0-5.012 4.969v42.632a4.941 4.941 0 0 0 5.012 4.969h75.248a4.941 4.941 0 0 0 5.012-4.969V378.04a5 5 0 0 0-5.012-4.969zM186.991 411.9v-7.544h-2.2v-2.275h7.126v2.275h-2.2v7.544zm-3.231-11.735h14.64v-2.575h-14.64zm0-5.45h14.64v-2.6h-14.64zm0-5.089h14.64v-2.575h-14.64zm17.574 10.568v-13.112h3.624a26.352 26.352 0 0 1 3.08.12 3.582 3.582 0 0 1 1.509.478 2.351 2.351 0 0 1 1.117 1.108 2.823 2.823 0 0 1 .393 1.586 3.061 3.061 0 0 1-.6 1.8 3.478 3.478 0 0 1-1.811.987 3.192 3.192 0 0 1 2.2.989 3.457 3.457 0 0 1 .815 2.4 4.23 4.23 0 0 1-.393 1.885 2.536 2.536 0 0 1-1.329 1.168 4.46 4.46 0 0 1-1.691.509c-1.087.09-2.2.209-3.291.209l-3.624-.119zm3.322-7.844h.694a5.125 5.125 0 0 0 1.812-.3 1.345 1.345 0 0 0 0-2.066 2.8 2.8 0 0 0-1.812-.3h-.815l.121 2.665zm0 5.179h1.3a6.008 6.008 0 0 0 1.782-.3.95.95 0 0 0 .513-1.108 1.327 1.327 0 0 0-.513-1.168 2.677 2.677 0 0 0-1.782-.3h-1.3v2.874zm7.7 2.665l4.621-13.113h4.5l4.62 13.113h-3.624l-.694-2.365h-5.1l-.695 2.365zm5.012-4.85h3.594l-1.3-4.371a3.54 3.54 0 0 0-.181-.6 7.156 7.156 0 0 1-.3-1.108 2.424 2.424 0 0 0-.211.9 3.546 3.546 0 0 0-.211.808zm9.935 4.85v-13.112h3.5l5.012 6.766c.182.3.3.509.484.809a7.44 7.44 0 0 1 .694 1.467c-.09-.48-.09-.989-.181-1.467v-7.575h3.5v13.113h-3.5l-5.012-6.736c-.211-.3-.3-.509-.513-.808a14.724 14.724 0 0 1-.695-1.5c.091.6.091 1.018.211 1.5a4.424 4.424 0 0 1 0 1.107v6.437zM193.332 411.9v-9.819h2.779a8.761 8.761 0 0 1 2.325.209 3.978 3.978 0 0 1 1.087.48 2.513 2.513 0 0 1 .815.987 3.547 3.547 0 0 1 .3 1.407 3.331 3.331 0 0 1-.6 1.886 3.524 3.524 0 0 1-1.6.989l2.6 3.832 3.412-9.789h3.411l3.412 9.819h-2.717l-.513-1.766h-3.805l-.483 1.766h-2.688l.061.12h-3.11l-2.295-3.892v3.892zm18.934 0v-9.819h2.6l3.714 5.059a1.7 1.7 0 0 0 .393.6 9.873 9.873 0 0 1 .513 1.108 3.834 3.834 0 0 1-.121-1.108v-5.748h2.628v9.819h-2.628l-3.684-5.059c-.12-.21-.3-.39-.422-.6a9.978 9.978 0 0 1-.483-1.108 5.136 5.136 0 0 1 .09 1.108v5.748zm12.229-3.173a3.453 3.453 0 0 0 1.178.987 2.668 2.668 0 0 0 1.207.3 1.563 1.563 0 0 0 .906-.3c.211-.18.393-.478.3-.689a1.012 1.012 0 0 0-.3-.778 3.393 3.393 0 0 0-1.389-.6 5.492 5.492 0 0 1-2.113-.988 2.8 2.8 0 0 1-.6-1.707 2.863 2.863 0 0 1 1-2.275 3.843 3.843 0 0 1 2.506-.9 7.076 7.076 0 0 1 1.6.21 3.468 3.468 0 0 1 1.418.689l-.815 1.885c-.3-.209-.6-.389-.905-.6a3.228 3.228 0 0 0-1-.21 1.855 1.855 0 0 0-.785.21.662.662 0 0 0-.3.6.7.7 0 0 0 .3.6 2.307 2.307 0 0 0 1 .39h.091a4.884 4.884 0 0 1 2.2.988 2.915 2.915 0 0 1 .513.9 4.459 4.459 0 0 1 .182 1.108 3.17 3.17 0 0 1-1 2.484 4.238 4.238 0 0 1-2.808.989 4.814 4.814 0 0 1-1.9-.39 4.362 4.362 0 0 1-1.6-1.108zm7.7 3.173v-9.819h6.13v2.185h-3.411v1.676h3.2v2.1h-3.2v3.858zm7.519 0v-9.819h6.1v2.185h-3.382v1.676h3.2v2.1h-3.2v1.676h3.382v2.182zm7.912 0v-9.819h2.808a8.429 8.429 0 0 1 2.3.209 3.808 3.808 0 0 1 1.117.48 2.806 2.806 0 0 1 .815.987 3.566 3.566 0 0 1 .3 1.407 3.331 3.331 0 0 1-.6 1.886 3.8 3.8 0 0 1-1.631.989l2.717 3.982h-3.11l-2.294-3.892v3.892zm-4.5-11.705v-13.113h3.594v5.958l4.227-5.958h4.2l-4.891 6.377 5.284 6.736h-4.5l-4.318-5.838v5.838zm7.005 6.467h.513a3.418 3.418 0 0 0 1.3-.3 1.08 1.08 0 0 0 .392-.9 1.478 1.478 0 0 0-.392-1.108 2.147 2.147 0 0 0-1.3-.3h-.513zm-45.294 1.467h2.717l-1-3.264a3.234 3.234 0 0 1-.12-.509 6.434 6.434 0 0 0-.182-.9 6.586 6.586 0 0 0-.211.718c-.091.18-.091.389-.211.6zm-9.028-1.467h.513a3.418 3.418 0 0 0 1.3-.3 1.081 1.081 0 0 0 .393-.9 1.478 1.478 0 0 0-.393-1.108 2.1 2.1 0 0 0-1.3-.3h-.513v2.6z" class="cls-1" transform="translate(-177.268 -373.071)"/>
</svg>
