<svg xmlns="http://www.w3.org/2000/svg" width="78.251" height="33.351" viewBox="0 0 78.251 33.351">
    <defs>
        <style>
            .cls-1{fill:#582183;fill-rule:evenodd}
        </style>
    </defs>
    <path id="eco" d="M211.72 382.17c-17.042-.18-30.971 7.55-31.092 17.405-.09 3.985 2.206 7.67 5.923 10.726a15.312 15.312 0 0 1-2.81-8.749c.091-9.915 13.839-17.794 30.7-17.585 9.126.09 17.344 2.577 22.844 6.471-5.5-4.884-14.836-8.059-25.563-8.269zm22.209 26.573a2.834 2.834 0 0 0-2.115-.989 12.432 12.432 0 0 0-2.69.6 13.042 13.042 0 0 1-2.931.6 4.317 4.317 0 0 1-3.807-1.887 5.955 5.955 0 0 1-1.178-3.895 5.166 5.166 0 0 1 1.39-3.955 4.908 4.908 0 0 1 4.109-1.707 14.459 14.459 0 0 1 2.719.508 11.7 11.7 0 0 0 2.6.6 2.6 2.6 0 0 0 2.115-.988 2.65 2.65 0 0 0 .786-2.187c0-1.708-1.088-2.906-3.2-3.685a17.374 17.374 0 0 0-5.529-.9 12.487 12.487 0 0 0-9 20.97 11.807 11.807 0 0 0 9 3.685 14.807 14.807 0 0 0 5.529-1.109c2.206-.869 3.2-2.067 3.2-3.655a3.126 3.126 0 0 0-1-2.007zm21.605-14.2a12.883 12.883 0 0 0-18.039 0 12.166 12.166 0 0 0-3.324 8.628 12.038 12.038 0 0 0 3.324 8.658 12.88 12.88 0 0 0 18.039 0 12.189 12.189 0 0 0 3.324-8.658 11.081 11.081 0 0 0-3.324-8.628zm-5.2 12.612a4.834 4.834 0 0 1-6.738.808 2.855 2.855 0 0 1-.785-.808 7.025 7.025 0 0 1-1.209-3.984 6.524 6.524 0 0 1 1.209-3.865 4.8 4.8 0 0 1 6.708-.809 3.466 3.466 0 0 1 .816.809 6.142 6.142 0 0 1 1.209 3.865 7.267 7.267 0 0 1-1.209 3.984zm-40.7-.09a11.847 11.847 0 0 0-3.2 1.079 12.92 12.92 0 0 1-4.321 1.108 8.756 8.756 0 0 1-3.9-.809 3.227 3.227 0 0 1-2.024-2.966h13.234a4.489 4.489 0 0 0 2.719-.72 2.972 2.972 0 0 0 .907-2.366 11.366 11.366 0 0 0-3.415-8.148 11.17 11.17 0 0 0-8.52-3.385 12.446 12.446 0 0 0-9.126 3.565 11.822 11.822 0 0 0-3.716 8.658 11.978 11.978 0 0 0 12.842 12.312 21.509 21.509 0 0 0 7.01-1.168c3.022-1.019 4.532-2.487 4.532-4.374a2.665 2.665 0 0 0-.906-2.1 3.427 3.427 0 0 0-2.116-.689zM197.79 397.9a4.745 4.745 0 0 1 6.436 0 3.639 3.639 0 0 1 1.51 2.786h-9.426a3.7 3.7 0 0 1 1.481-2.786z" class="cls-1" transform="translate(-180.625 -382.167)"/>
</svg>
