<svg xmlns="http://www.w3.org/2000/svg" width="74.2" height="65.254" viewBox="0 0 74.2 65.254">
    <defs>
        <style>
            .cls-1{fill:#fff}
        </style>
    </defs>
    <path id="icon-3" d="M-101.5 368.063a1.01 1.01 0 0 0-.686-.4h-58.01l-1.6-7.6a1.041 1.041 0 0 0-.944-.737h-11.779a.948.948 0 0 0-.944.936.948.948 0 0 0 .944.935h11.007l8.978 42.066c.143.737.6 1.3 1.029 1.3h42.086a.916.916 0 0 0 .943-.879.842.842 0 0 0-.286-.708.934.934 0 0 0-.657-.284H-152.7l-1.744-8.135h46.374a1.041 1.041 0 0 0 .915-.737l5.889-25.03a.884.884 0 0 0-.229-.737zm-42.743 42.973a6.8 6.8 0 0 0-6.833 6.775 6.8 6.8 0 0 0 6.833 6.775 6.8 6.8 0 0 0 6.834-6.775 6.8 6.8 0 0 0-6.834-6.775zm0 11.679a4.945 4.945 0 0 1-4.946-4.9 4.927 4.927 0 0 1 4.946-4.9 4.909 4.909 0 0 1 4.947 4.9 4.884 4.884 0 0 1-4.832 4.9zm23.559-11.679a6.8 6.8 0 0 0-6.833 6.775 6.8 6.8 0 0 0 6.833 6.775 6.8 6.8 0 0 0 6.833-6.775 6.8 6.8 0 0 0-6.833-6.775zm0 11.679a4.926 4.926 0 0 1-4.946-4.9 4.909 4.909 0 0 1 4.946-4.9 4.927 4.927 0 0 1 4.946 4.9 4.883 4.883 0 0 1-4.831 4.9zm17.326-53.15l-2.516 10.6h-15.806l1.8-10.63zm-20.557 12.5l-1.772 10.63h-11.865l-1.773-10.63zm-17.554-12.529h19.67l-1.8 10.63h-16.068zm.228 12.529l1.773 10.63h-15.382l-2.258-10.63zm34.938 0l-2.516 10.63H-123.8l1.8-10.63zm-35.252-1.9H-157.5l-2.287-10.63h16.44z" class="cls-1" transform="translate(175.459 -359.332)"/>
</svg>
