<svg xmlns="http://www.w3.org/2000/svg" width="69.337" height="65.981" viewBox="0 0 69.337 65.981">
    <defs>
        <style>
            .cls-1{fill:#fff;fill-rule:evenodd}
        </style>
    </defs>
    <path id="icon-2_" d="M14.945 401.767a13.931 13.931 0 0 0-13.959-13.84h-2.332v-23.818H1.2a11.638 11.638 0 0 1 11.414 8.791 1.14 1.14 0 0 0 .8.821.719.719 0 0 0 .829-.3 1.033 1.033 0 0 0 .215-.912 13.734 13.734 0 0 0-13.349-10.316h-2.547v-5.445a.672.672 0 0 0-.307-.608.627.627 0 0 0-.705-.213.919.919 0 0 0-.921.912v5.445h-2.362a13.838 13.838 0 0 0-9.848 4.046 13.545 13.545 0 0 0-4.081 9.794 13.925 13.925 0 0 0 13.929 13.841h2.362v23.817h-2.546a11.636 11.636 0 0 1-11.413-8.791 1.076 1.076 0 0 0-1.013-.912.946.946 0 0 0-.7.3 1.033 1.033 0 0 0-.215.912 13.636 13.636 0 0 0 13.53 10.312h2.362v5.445a.675.675 0 0 0 .307.609 1.489 1.489 0 0 0 .706.212.918.918 0 0 0 .92-.912v-5.475H.894a13.773 13.773 0 0 0 14.051-13.719zm-56.7.091a.877.877 0 0 0 .89.822h17.12a.8.8 0 0 0 .828-.822.885.885 0 0 0-.828-.791h-17.12c-.491-.091-.8.305-.89.791zm16.169-15.422h-27.978a.952.952 0 0 0-.828.913.86.86 0 0 0 .828.791h27.981a1.154 1.154 0 0 0 .613-.213.78.78 0 0 0 .307-.578 1.413 1.413 0 0 0-.184-.609 1.107 1.107 0 0 0-.736-.3zm0-14.844H-43.1a.95.95 0 0 0-.8.913.882.882 0 0 0 .92.79h17.518a1.744 1.744 0 0 0 .614-.182.977.977 0 0 0 .276-.608 1.413 1.413 0 0 0-.184-.609 1.549 1.549 0 0 0-.828-.3zm22.3 16.335H-5.61a11.97 11.97 0 0 1-12.027-11.894A12 12 0 0 1-5.61 364.109h2.331zm1.933 25.764v-23.848H.986a11.924 11.924 0 1 1 0 23.848z" class="cls-1" data-name="icon-2" transform="translate(54.392 -355.891)"/>
</svg>
