<svg xmlns="http://www.w3.org/2000/svg" width="68.04" height="66.75" viewBox="0 0 68.04 66.75">
    <defs>
        <style>
            .cls-1{fill:#fff}
        </style>
    </defs>
    <path id="icon1" d="M48.372 53.444a.933.933 0 0 0-1.32-.009l-.008.006-7.066 7.067a.937.937 0 0 0 1.322 1.324l5.468-5.468v14.758a.937.937 0 0 0 1.874 0V56.365l5.467 5.467a.937.937 0 0 0 1.325-1.325zm29.609-34.327h-1.757V16.25a1.876 1.876 0 0 0-1.874-1.874H20.6a1.876 1.876 0 0 0-1.874 1.874v2.868h-1.291a3.751 3.751 0 0 0-3.747 3.747v41.516a3.751 3.751 0 0 0 3.747 3.747H29.7a18.967 18.967 0 0 0 36.006 0h12.27a3.751 3.751 0 0 0 3.747-3.747V22.865a3.751 3.751 0 0 0-3.742-3.748zM20.6 16.25h53.75v2.868H20.6zm27.109 63a17.114 17.114 0 1 1 17.112-17.11 17.131 17.131 0 0 1-17.114 17.112zm32.145-39.59H65.525a4.275 4.275 0 1 1 0-8.55h14.329zm0-10.423H65.525a6.149 6.149 0 1 0 0 12.3h14.329v22.845a1.876 1.876 0 0 1-1.874 1.874H66.23a18.986 18.986 0 1 0-37.048 0H17.435a1.876 1.876 0 0 1-1.874-1.874V22.865a1.876 1.876 0 0 1 1.874-1.874H77.98a1.876 1.876 0 0 1 1.874 1.874v6.373zm-17.47 6.149a3.133 3.133 0 1 0 3.133-3.133 3.136 3.136 0 0 0-3.132 3.133zm4.392 0a1.259 1.259 0 1 1-1.259-1.259 1.261 1.261 0 0 1 1.26 1.259z" class="cls-1" transform="translate(-13.688 -14.376)"/>
</svg>
