<svg xmlns="http://www.w3.org/2000/svg" xmlns:xlink="http://www.w3.org/1999/xlink" width="207.137" height="38.073" viewBox="0 0 207.137 38.073">
    <defs>
        <style>
            .cls-1{fill:#fff}.cls-1,.cls-2,.cls-3{fill-rule:evenodd}.cls-2{fill:url(#linear-gradient)}.cls-3{fill:url(#linear-gradient-2)}
        </style>
        <linearGradient id="linear-gradient" x2="1" y1=".5" y2=".5" gradientUnits="objectBoundingBox">
            <stop offset="0" stop-color="#fa8807"/>
            <stop offset=".994" stop-color="#f05913"/>
        </linearGradient>
        <linearGradient id="linear-gradient-2" x1=".5" x2=".5" y1="1" xlink:href="#linear-gradient"/>
    </defs>
    <g id="Logo">
        <path id="Path_174" d="M-195.626 151.8c.405 0 .532.2.405.578l-9.766 23.214c-.838 1.937-1.624 3.169-2.334 3.622s-2.207.7-4.439.7c-2.131 0-3.5-.2-4.084-.7-.584-.453-.989-1.685-1.167-3.622l-2.489-23.212c-.051-.378.127-.578.532-.578h4.617c.254 0 .381.125.381.5v.075l2.207 21.806c.152.83.2 1.082.659 1.082.533 0 .66-.177 1.116-1.082l9.107-21.806c.127-.378.254-.578.508-.578zm69.888 0c.3 0 .508.2.457.578l-4.186 25.931a.971.971 0 0 1-.837.905 55.345 55.345 0 0 1-8.118.7c-7.686-.075-9.056-2.137-7.813-10.261.634-4 1.624-6.716 2.993-8.124s3.7-2.188 6.951-2.188a41.533 41.533 0 0 1 4.49.2l1.116-7.167c.051-.378.254-.578.583-.578zm-6.773 12.123h-3.247c-1.776 0-2.994.377-3.577 1.031-.583.7-1.04 2.188-1.445 4.577a8.533 8.533 0 0 0-.127 4.451c.381.831 1.421 1.232 3.2 1.232a18.623 18.623 0 0 0 3.5-.277zm-14.053-4.251a.586.586 0 0 1 .457.7l-.457 2.968c-.076.377-.33.5-.711.5h-3.45c-1.953 0-2.613.4-2.867 1.811l-2.156 13.355c-.051.377-.177.578-.583.578h-4.287c-.381 0-.508-.2-.457-.578l2.334-14.714a5.158 5.158 0 0 1 2.741-4.241 9.492 9.492 0 0 1 4.617-.83 23.689 23.689 0 0 1 4.82.453zm-16.21 1.157c1.116 1.031 1.445 2.565 1.116 4.7l-2 12.449a1.475 1.475 0 0 1-.989 1.107 40.583 40.583 0 0 1-8.4.754c-3.044 0-4.54-.126-6.037-.956-1.446-.83-1.751-2.515-1.37-5.282.381-2.339 1.243-3.873 2.537-4.728 1.294-.83 3.247-1.208 5.86-1.208h4.617l.177-1.308c.279-1.736-.634-2.515-2.968-2.515h-6.6c-.381 0-.507-.177-.431-.579l.431-2.893a.7.7 0 0 1 .61-.579 33.26 33.26 0 0 1 6.621-.528c3.526 0 5.733.528 6.824 1.559zm-5.125 10.312h-4.236c-1.827 0-2.588.654-2.867 2.188-.254 1.685.405 2.214 2.74 2.214a14.92 14.92 0 0 0 3.7-.4zm-13.09-11.343c.406.051.533.327.457.7l-.457 2.842c-.051.377-.253.578-.71.578h-5.911c-1.624 0-2.74.377-3.323 1.106-.584.7-1.04 2.239-1.421 4.5-.406 2.263-.406 3.8-.076 4.527.381.755 1.37 1.082 2.994 1.082h5.91c.406 0 .584.2.533.528l-.457 2.893a.761.761 0 0 1-.71.7 30.247 30.247 0 0 1-6.064.528c-3.17 0-5.073-.4-6.367-1.232-1.953-1.484-1.953-4.05-1.167-9.029.634-4.2 1.674-6.891 3.044-8.25 1.446-1.358 4.034-2.011 7.89-2.011a23.579 23.579 0 0 1 5.834.528z" class="cls-1" data-name="Path 174" transform="translate(273.671 -151.802)"/>
        <path id="Path_175" d="M-233.993 151.8h-18.937l9.92 16.431z" class="cls-2" data-name="Path 175" transform="translate(277.439 -151.802)"/>
        <path id="Path_176" d="M-55.474 160.422c.406 0 .533.2.457.529l-3.121 19.215c-.456 2.968-1.04 4.5-2.46 5.936-1.446 1.408-3.78 1.937-7.686 1.937a40.159 40.159 0 0 1-6.773-.529.435.435 0 0 1-.38-.579l.456-2.716a.51.51 0 0 1 .584-.5h6.367c3.2 0 4.11-.7 4.49-3.093l.075-.2a27.082 27.082 0 0 1-4.49.377c-3.247 0-5.4-.7-6.367-2.062-.989-1.409-1.193-3.8-.66-7.219l1.7-10.513c.051-.377.254-.5.634-.5h4.312c.381 0 .508.177.431.5l-1.5 9.482c-.381 2.314-.3 3.873.076 4.577.457.7 1.573 1.106 3.374 1.106a23.872 23.872 0 0 0 3.323-.2l2.414-14.97c.076-.377.254-.5.584-.5h4.16zm-21.994 1.358c1.116 1.031 1.446 2.565 1.116 4.7l-1.948 12.453a1.444 1.444 0 0 1-.964 1.107 40.756 40.756 0 0 1-8.4.754c-3.07 0-4.566-.126-6.063-.956-1.421-.83-1.751-2.515-1.345-5.282.381-2.339 1.218-3.873 2.537-4.728 1.295-.83 3.247-1.208 5.835-1.208h4.617l.2-1.308c.253-1.736-.66-2.515-2.994-2.515h-6.57c-.381 0-.508-.177-.457-.579l.457-2.893a.67.67 0 0 1 .583-.579 33.376 33.376 0 0 1 6.647-.528c3.451 0 5.708.528 6.748 1.559zm-5.124 10.312h-4.237c-1.826 0-2.587.654-2.866 2.188-.254 1.685.405 2.214 2.739 2.214a14.929 14.929 0 0 0 3.7-.4zm-14.308-9.809c1.04 1.358 1.217 4 .634 7.947-.711 4.125-1.674 6.967-3.044 8.376-1.37 1.434-3.7 2.188-7.027 2.188a44.367 44.367 0 0 1-4.439-.176l-1.04 6.69a.516.516 0 0 1-.584.528h-4.287c-.381 0-.508-.2-.457-.528l4.11-25.478a1.043 1.043 0 0 1 .913-.88 54.754 54.754 0 0 1 8.118-.729c3.654 0 6.064.729 7.1 2.062zm-11.315 2.591l-1.775 11.016a22.283 22.283 0 0 0 3.247.2c1.775 0 2.993-.377 3.6-1.031.634-.7 1.09-2.263 1.5-4.577a8.831 8.831 0 0 0 .127-4.376c-.329-.855-1.37-1.308-3.069-1.308h-3.628z" class="cls-3" data-name="Path 176" transform="translate(262.133 -152.751)"/>
        <path id="Path_177" d="M-267.463 151.824h-13.09l22.653 38.053 6.367-10.765z" class="cls-1" data-name="Path 177" transform="translate(280.553 -151.804)"/>
    </g>
</svg>
